<svg xmlns="http://www.w3.org/2000/svg" fill="none" viewBox="0 0 24 24">
<path d="M12 0C18.6545 0 24 5.34545 24 12C24 18.6545 18.6545 24 12 24C5.34545 24 0 18.6545 0 12C1.91523e-07 5.34545 5.34545 1.91517e-07 12 0ZM12 2.40039C6.65462 2.40039 2.4005 6.65465 2.40039 12C2.40039 17.3455 6.65455 21.6006 12 21.6006C17.3454 21.6005 21.5996 17.3454 21.5996 12C21.5995 6.65468 17.3453 2.40044 12 2.40039Z" fill="#0B996C"/>
<path d="M10.5804 17.5601L5.45312 12.4328L6.9804 10.9055L10.5804 14.5055L17.4531 7.63281L18.9804 9.16009L10.5804 17.5601Z" fill="#313131"/>
</svg>