<svg xmlns="http://www.w3.org/2000/svg" id="Layer_1" data-name="Layer 1" viewBox="175.06 175.06 1443.21 989.57"><defs><style>.bg{fill:#ffffff;}.cls-1{fill:#00698f;}</style></defs><path class="bg" d="M1378.82,175.06H175.06v989.57H1618.27V415C1618.27,282.48,1511.06,175.06,1378.82"/><path class="cls-1" d="M1378.82,175.06H175.06v989.57H1618.27V415C1618.27,282.48,1511.06,175.06,1378.82,175.06Zm-13.31,525.18h82.64c6.49,0,12.62,0,12.62-8.65v-3.12c0-8.8-6.13-8.8-12.62-8.8h-51.89c-16.82,0-30.75-1.72-30.75-22.82V626c0-20.84,13.93-22.53,30.75-22.53h94.13v27.91h-82.64c-6.5,0-12.63,0-12.63,8.8V643c0,8.8,6.13,8.8,12.63,8.8h51.46c17.06,0,31.18,1.72,31.18,22.81v30.77c0,21.23-14,22.95-30.9,22.95h-94Zm-25.68-143.69V731.61H1245.7c-16.82,0-30.75-1.72-30.75-23v-79.1c0-21.1,13.93-22.81,30.75-22.81h64.51V556.55Zm-176.06,78.11v97h-29.62V606.75h61.51v27.91h-31.89ZM983.67,677.9c0-21.1,13.93-22.81,30.76-22.81h64.23V643.45c0-8.79-6.13-8.79-12.62-8.79H983.67V606.75h94c16.9,0,30.9,1.71,30.9,22.81V731.62h-94.13c-16.83,0-30.76-1.73-30.76-23ZM863.91,606.74h64.5V556.55H958V731.61H863.91c-16.83,0-30.76-1.72-30.76-23v-79.1C833.15,608.45,847.08,606.74,863.91,606.74ZM847,1036.12H753v-28h82.64c6.5,0,12.63,0,12.63-8.66V985.94H783.79c-16.83,0-30.76-1.73-30.76-23V861.06h29.62v88.17c0,8.66,6.13,8.66,12.62,8.66h53V861.06h29.61v152.1C877.91,1034.39,863.92,1036.12,847,1036.12ZM808.83,478H714.71c-16.83,0-30.76-1.73-30.76-23V424.28c0-21.1,13.93-22.82,30.76-22.82h64.22V389.83c0-8.8-6.13-8.8-12.62-8.8H684V353.12h94c16.91,0,30.9,1.72,30.9,22.82Zm-.05,253.62H779.17V643.45c0-8.79-6.14-8.79-12.63-8.79h-53v97H683.9V606.75H778c16.83,0,30.76,1.71,30.76,22.81ZM600.41,883.9c0-21.1,13.93-22.81,30.75-22.81h64.51V810.91h29.62V986H631.16c-16.82,0-30.75-1.73-30.75-23Zm-55.24,102H481.94c-16.83,0-30.76-1.73-30.76-23v-79.1c0-21.1,13.93-22.82,30.76-22.82h63.23c16.9,0,30.89,1.72,30.89,22.82V963C576.06,984.21,562.07,985.94,545.17,985.94ZM604,353.14v-37h29.61v37h31.9v27.91h-31.9v97H604v-97H591.37V353.14H604ZM533.41,677.9c0-21.1,13.93-22.81,30.75-22.81h64.23V643.45c0-8.79-6.13-8.79-12.62-8.79H533.41V606.75h94c16.9,0,30.9,1.71,30.9,22.81V731.62H564.16c-16.82,0-30.75-1.73-30.75-23Zm45-199.9H484.24c-16.82,0-30.75-1.73-30.75-23V424.28c0-21.1,13.93-22.82,30.75-22.82h64.23V389.83c0-8.8-6.13-8.8-12.62-8.8H453.49V353.12h94c16.91,0,30.9,1.72,30.9,22.82ZM453.42,607.31V570.36H483v37h31.9v27.91H483v97H453.42v-97h-12.6V607.31h12.6ZM302.94,455v-79.1c0-21.1,13.93-22.82,30.76-22.82h64.51V302.94h29.61V478H333.7C316.87,478,302.94,476.27,302.94,455Zm0,355.87h29.61v50.18h64.51c16.83,0,30.76,1.72,30.76,22.82V963c0,21.23-13.93,23-30.76,23H302.94Zm29.61-167.46v2.84c0,8.8,6.14,8.8,12.63,8.8h51.46c17.06,0,31.18,1.71,31.18,22.81v30.76c0,21.23-14,23-30.9,23h-94v-28h82.64c6.49,0,12.63,0,12.63-8.66v-3.12c0-8.79-6.14-8.79-12.63-8.79H333.69c-16.82,0-30.75-1.72-30.75-22.82v-30.9c0-20.84,13.93-22.53,30.75-22.53h94.13v27.91H345.18C338.69,634.66,332.55,634.66,332.55,643.45Z"/><path class="cls-1" d="M575.65,703.57h52.74V683H575.65c-6.5,0-12.63,0-12.63,8.79v3.12C563,703.57,569.15,703.57,575.65,703.57Z"/><path class="cls-1" d="M875.38,703.56h53V634.65h-53c-6.49,0-12.62,0-12.62,8.79V694.9C862.76,703.56,868.89,703.56,875.38,703.56Z"/><path class="cls-1" d="M1025.92,703.57h52.74V683h-52.74c-6.5,0-12.63,0-12.63,8.79v3.12C1013.29,703.57,1019.42,703.57,1025.92,703.57Z"/><path class="cls-1" d="M1257.19,634.65c-6.5,0-12.63,0-12.63,8.79V694.9c0,8.66,6.13,8.66,12.63,8.66h53V634.65h-53Z"/><path class="cls-1" d="M398.21,897.8c0-8.79-6.14-8.79-12.63-8.79h-53v68.91h53c6.49,0,12.63,0,12.63-8.66Z"/><path class="cls-1" d="M533.82,889h-40.4c-6.49,0-12.62,0-12.62,8.8v51.46c0,8.66,6.13,8.66,12.62,8.66h40.4c6.5,0,12.63,0,12.63-8.66V897.77C546.45,889,540.32,889,533.82,889Z"/><path class="cls-1" d="M642.65,957.91h53V889h-53c-6.5,0-12.63,0-12.63,8.8v51.45C630,957.91,636.15,957.91,642.65,957.91Z"/><path class="cls-1" d="M345.18,449.94h53V381h-53c-6.49,0-12.63,0-12.63,8.8v51.46C332.55,449.94,338.69,449.94,345.18,449.94Z"/><path class="cls-1" d="M495.73,429.37c-6.5,0-12.63,0-12.63,8.8v3.12c0,8.66,6.13,8.66,12.63,8.66h52.74V429.37H495.73Z"/><path class="cls-1" d="M726.19,429.37c-6.5,0-12.63,0-12.63,8.8v3.12c0,8.66,6.13,8.66,12.63,8.66h52.74V429.37H726.19Z"/></svg>